# xmcd CD database file
#
# Track frame offsets:
#	150
#	10821
#	24308
#	42531
#	70701
#	96252
#	140890
#	174996
#	204448
#	228745
#	247526
#	261151
#	275529
#	290798
#	307545
#
# Disc length: 4376 seconds
#
# Revision: 0
# Processed by: cddbd v1.5.1PL2 Copyright (c) Steve Scherf et al.
# Submitted via: CDex 1.51
#
DISCID=ce11160f
DTITLE=Miles Davis - 10 Jazz Legends Vol 1 CD 5
DYEAR=1900
DGENRE=Jazz
TTITLE0=Morpheus
TTITLE1=Blue Room
TTITLE2=Conception
TTITLE3=Out of the Blue
TTITLE4=Denial
TTITLE5=Bluing
TTITLE6=Dig
TTITLE7=My old fame
TTITLE8=It's only a paper moon
TTITLE9=Dear old Stockholm
TTITLE10=Chance it
TTITLE11=Donna
TTITLE12=Woody' n' you
TTITLE13=Yesterdays
TTITLE14=How deep is the ocean
EXTD=
EXTT0=
EXTT1=
EXTT2=
EXTT3=
EXTT4=
EXTT5=
EXTT6=
EXTT7=
EXTT8=
EXTT9=
EXTT10=
EXTT11=
EXTT12=
EXTT13=
EXTT14=
PLAYORDER=
